REM DIRINDEX 1\2,1\3,1\4,1\5
REM DIRNAME "folder01","folder02","folder03","folder04","folder05"
TITLE ""
FILE "1Q_t_0059-0068.mp3" MP3
  TRACK 01 AUDIO
    TITLE "3:cjc172_1085"
    INDEX 01 00:00:00
  TRACK 02 AUDIO
    TITLE "0:"
    INDEX 01 00:01:25
  TRACK 03 AUDIO
    TITLE "4:cjc172_1086"
    INDEX 01 00:01:41
  TRACK 04 AUDIO
    TITLE "0:"
    INDEX 01 00:03:65
  TRACK 05 AUDIO
    TITLE "5:cjc172_1087"
    INDEX 01 00:04:04
  TRACK 06 AUDIO
    TITLE "0:"
    INDEX 01 00:10:40
  TRACK 07 AUDIO
    TITLE "3:cjc172_1088"
    INDEX 01 00:11:24
  TRACK 08 AUDIO
    TITLE "0:"
    INDEX 01 00:12:27
  TRACK 09 AUDIO
    TITLE "4:cjc172_1089"
    INDEX 01 00:12:43
  TRACK 10 AUDIO
    TITLE "0:"
    INDEX 01 00:15:14
  TRACK 11 AUDIO
    TITLE "5:cjc172_1090"
    INDEX 01 00:15:29
  TRACK 12 AUDIO
    TITLE "0:"
    INDEX 01 00:20:38
  TRACK 13 AUDIO
    TITLE "3:cjc172_1091"
    INDEX 01 00:21:16
  TRACK 14 AUDIO
    TITLE "0:"
    INDEX 01 00:22:45
  TRACK 15 AUDIO
    TITLE "4:cjc172_1092"
    INDEX 01 00:22:63
  TRACK 16 AUDIO
    TITLE "0:"
    INDEX 01 00:23:68
  TRACK 17 AUDIO
    TITLE "5:cjc172_1093"
    INDEX 01 00:24:09
  TRACK 18 AUDIO
    TITLE "0:"
    INDEX 01 00:30:33
  TRACK 19 AUDIO
    TITLE "3:cjc172_1094"
    INDEX 01 00:31:21
  TRACK 20 AUDIO
    TITLE "0:"
    INDEX 01 00:32:26
  TRACK 21 AUDIO
    TITLE "4:cjc172_1095"
    INDEX 01 00:32:42
  TRACK 22 AUDIO
    TITLE "0:"
    INDEX 01 00:34:60
  TRACK 23 AUDIO
    TITLE "5:cjc172_1096"
    INDEX 01 00:35:01
  TRACK 24 AUDIO
    TITLE "0:"
    INDEX 01 00:38:70
  TRACK 25 AUDIO
    TITLE "3:cjc172_1097"
    INDEX 01 00:39:48
  TRACK 26 AUDIO
    TITLE "0:"
    INDEX 01 00:40:61
  TRACK 27 AUDIO
    TITLE "4:cjc172_1098"
    INDEX 01 00:41:01
  TRACK 28 AUDIO
    TITLE "0:"
    INDEX 01 00:42:09
  TRACK 29 AUDIO
    TITLE "5:cjc172_1099"
    INDEX 01 00:42:24
  TRACK 30 AUDIO
    TITLE "0:"
    INDEX 01 00:47:53
  TRACK 31 AUDIO
    TITLE "3:cjc172_1100"
    INDEX 01 00:48:31
  TRACK 32 AUDIO
    TITLE "0:"
    INDEX 01 00:49:52
  TRACK 33 AUDIO
    TITLE "4:cjc172_1101"
    INDEX 01 00:49:73
  TRACK 34 AUDIO
    TITLE "0:"
    INDEX 01 00:51:27
  TRACK 35 AUDIO
    TITLE "5:cjc172_1102"
    INDEX 01 00:51:41
  TRACK 36 AUDIO
    TITLE "0:"
    INDEX 01 00:58:04
  TRACK 37 AUDIO
    TITLE "3:cjc172_1103"
    INDEX 01 00:58:59
  TRACK 38 AUDIO
    TITLE "0:"
    INDEX 01 00:59:56
  TRACK 39 AUDIO
    TITLE "4:cjc172_1104"
    INDEX 01 00:59:74
  TRACK 40 AUDIO
    TITLE "0:"
    INDEX 01 01:02:70
  TRACK 41 AUDIO
    TITLE "5:cjc172_1105"
    INDEX 01 01:03:09
  TRACK 42 AUDIO
    TITLE "0:"
    INDEX 01 01:08:24
  TRACK 43 AUDIO
    TITLE "3:cjc172_1106"
    INDEX 01 01:09:04
  TRACK 44 AUDIO
    TITLE "0:"
    INDEX 01 01:10:17
  TRACK 45 AUDIO
    TITLE "4:cjc172_1107"
    INDEX 01 01:10:32
  TRACK 46 AUDIO
    TITLE "0:"
    INDEX 01 01:11:40
  TRACK 47 AUDIO
    TITLE "5:cjc172_1108"
    INDEX 01 01:11:53
  TRACK 48 AUDIO
    TITLE "0:"
    INDEX 01 01:18:52
  TRACK 49 AUDIO
    TITLE "3:cjc172_1109"
    INDEX 01 01:19:27
  TRACK 50 AUDIO
    TITLE "0:"
    INDEX 01 01:20:41
  TRACK 51 AUDIO
    TITLE "4:cjc172_1110"
    INDEX 01 01:20:58
  TRACK 52 AUDIO
    TITLE "0:"
    INDEX 01 01:23:64
  TRACK 53 AUDIO
    TITLE "5:cjc172_1111"
    INDEX 01 01:24:05
  TRACK 54 AUDIO
    TITLE "0:"
    INDEX 01 01:31:70
  TRACK 55 AUDIO
    TITLE "3:cjc172_1112"
    INDEX 01 01:32:48
  TRACK 56 AUDIO
    TITLE "0:"
    INDEX 01 01:33:65
  TRACK 57 AUDIO
    TITLE "4:cjc172_1113"
    INDEX 01 01:34:07
  TRACK 58 AUDIO
    TITLE "0:"
    INDEX 01 01:36:49
  TRACK 59 AUDIO
    TITLE "5:cjc172_1114"
    INDEX 01 01:36:65
  TRACK 60 AUDIO
    TITLE "0:"
    INDEX 01 01:43:24
